<?xml version="1.0" encoding="UTF-8"?>
<svg xmlns="http://www.w3.org/2000/svg" version="1.1" viewBox="0 0 16 16">
  <defs>
    <style>
      .cls-1 {
        fill: #007374;
      }
    </style>
  </defs>
  <!-- Generator: Adobe Illustrator 28.7.1, SVG Export Plug-In . SVG Version: 1.2.0 Build 142)  -->
  <g>
    <g id="Camada_1">
      <path class="cls-1" d="M9.6,8c-.2-.1-.3-.2-.4-.3-1.8-1.8-3.6-3.6-5.3-5.3-.4-.4-.6-.9-.4-1.5C3.7,0,4.8-.3,5.5.3c.1,0,.2.2.3.3,2.1,2.1,4.2,4.2,6.3,6.3.8.8.8,1.5,0,2.2-2.1,2.1-4.2,4.2-6.4,6.4-.4.4-.9.6-1.4.5-.9-.3-1.3-1.4-.7-2.1,0-.1.2-.2.3-.3,1.8-1.8,3.5-3.5,5.3-5.3,0,0,.2-.2.4-.3Z"/>
    </g>
  </g>
</svg>