<?xml version="1.0" encoding="UTF-8"?>
<svg xmlns="http://www.w3.org/2000/svg" version="1.1" viewBox="0 0 330 142">
  <defs>
    <style>
      .cls-1 {
        fill: #e6e6e6;
      }

      .cls-2 {
        fill: #fff;
      }
    </style>
  </defs>
  <!-- Generator: Adobe Illustrator 28.7.1, SVG Export Plug-In . SVG Version: 1.2.0 Build 142)  -->
  <g>
    <g id="Camada_1">
      <g>
        <g>
          <polygon class="cls-1" points="45.11 6.83 34.82 6.83 4.87 6.83 4.87 47.07 4.87 87.31 4.87 127.55 45.11 127.55 45.11 87.31 45.11 47.07 83.81 47.07 83.81 6.83 45.11 6.83"/>
          <polygon class="cls-2" points="85.42 6.83 85.42 47.07 85.42 87.31 46.79 87.31 46.79 127.55 85.42 127.55 125.67 127.55 125.67 87.31 125.67 47.07 125.67 6.83 85.42 6.83"/>
        </g>
        <g>
          <path class="cls-2" d="M171,38.6c2.37,1.39,5.18,2.08,8.45,2.08s5.94-.64,8.22-1.93c2.28-1.29,4.04-3.13,5.26-5.53s1.84-5.28,1.84-8.64c0-.26,0-.51-.02-.76-.02-.24-.02-.5-.02-.76h-14.54v3.52h10.21c-.15,1.85-.55,3.47-1.23,4.85-.86,1.76-2.12,3.12-3.77,4.06-1.65.95-3.63,1.42-5.95,1.42s-4.44-.54-6.17-1.62c-1.73-1.08-3.07-2.61-4.01-4.6-.95-1.99-1.42-4.34-1.42-7.05s.47-5.15,1.42-7.12c.95-1.97,2.3-3.49,4.06-4.55,1.76-1.06,3.87-1.59,6.32-1.59s4.49.5,6.12,1.49c1.63,1,2.99,2.37,4.06,4.14l3.77-1.76c-2.94-5.09-7.61-7.64-14-7.64-3.36,0-6.23.68-8.62,2.03-2.38,1.35-4.22,3.3-5.51,5.85-1.29,2.55-1.93,5.6-1.93,9.15s.65,6.47,1.96,9.03c1.3,2.56,3.14,4.54,5.51,5.92Z"/>
          <path class="cls-2" d="M204.56,23.73c1.56-2.43,3.84-3.66,6.85-3.66.36,0,.69.02.98.07s.59.11.88.17l.39-3.92c-.62-.16-1.31-.24-2.06-.24-2.06,0-3.81.47-5.26,1.42-.83.54-1.52,1.23-2.11,2.06l-.51-2.89h-3.28v23.35h4.11v-16.36Z"/>
          <path class="cls-2" d="M226.93,40.68c3.34,0,5.97-1.17,7.91-3.49l.51,2.9h3.28v-23.35h-4.11v16.78c-1.77,2.32-4.01,3.49-6.71,3.49-1.73,0-3.08-.49-4.04-1.47-.96-.98-1.44-2.32-1.44-4.01v-14.79h-4.11v15.08c0,2.77.77,4.94,2.33,6.51,1.55,1.57,3.68,2.35,6.39,2.35Z"/>
          <path class="cls-2" d="M249.89,37.62c1.83,2.03,4.27,3.06,7.34,3.06,2.32,0,4.3-.49,5.95-1.47,1.65-.98,2.91-2.38,3.79-4.21.88-1.83,1.32-4.02,1.32-6.56,0-3.85-.98-6.86-2.94-9.03-1.96-2.17-4.67-3.26-8.13-3.26-1.96,0-3.66.42-5.12,1.25-.96.55-1.81,1.31-2.55,2.23l-.51-2.89h-3.28v33.24l4.11-1.03v-11.34ZM252.73,20.78c1.14-.6,2.4-.91,3.77-.91,2.38,0,4.25.76,5.61,2.28,1.35,1.52,2.03,3.61,2.03,6.29,0,1.8-.31,3.33-.93,4.6-.62,1.27-1.49,2.25-2.62,2.94-1.13.69-2.49,1.03-4.09,1.03-2.7,0-4.9-1.17-6.61-3.48v-10.22c.82-1.11,1.76-1.96,2.84-2.53Z"/>
          <path class="cls-2" d="M284.6,40.68c2.48,0,4.62-.49,6.41-1.47,1.79-.98,3.17-2.38,4.11-4.21.95-1.83,1.42-4.02,1.42-6.56,0-3.85-1.05-6.86-3.16-9.03-2.11-2.17-5.03-3.26-8.79-3.26-2.51,0-4.67.49-6.46,1.47-1.8.98-3.17,2.38-4.14,4.21-.96,1.83-1.44,4.03-1.44,6.61,0,3.82,1.06,6.81,3.18,8.98,2.12,2.17,5.07,3.26,8.86,3.26ZM277.7,23.84c.62-1.27,1.51-2.25,2.67-2.94,1.16-.69,2.57-1.03,4.23-1.03,2.45,0,4.36.76,5.73,2.28,1.37,1.52,2.06,3.61,2.06,6.29,0,1.8-.31,3.33-.93,4.6-.62,1.27-1.52,2.25-2.69,2.94-1.17.69-2.56,1.03-4.16,1.03-2.45,0-4.37-.76-5.75-2.28-1.39-1.52-2.08-3.61-2.08-6.29,0-1.79.31-3.33.93-4.6Z"/>
          <polygon class="cls-2" points="199.08 83.81 199.08 50.91 192.08 50.91 181.89 65.65 171.66 50.91 164.61 50.91 164.61 83.81 172.1 83.81 172.1 63.18 179.49 73.87 184.24 73.87 191.59 63.25 191.59 83.81 199.08 83.81"/>
          <path class="cls-2" d="M214.69,59.43c-3.69,0-7.03.88-10.04,2.64l3.62,5.14c.88-.46,1.79-.85,2.74-1.18.95-.33,2.01-.49,3.18-.49,1.44,0,2.52.33,3.26,1,.73.67,1.1,1.62,1.1,2.86v.38c-1.49-.57-3.15-.87-4.99-.87-3.17,0-5.64.68-7.42,2.03-1.78,1.35-2.67,3.26-2.67,5.7s.81,4.23,2.42,5.63c1.62,1.4,3.78,2.11,6.49,2.11,1.96,0,3.67-.42,5.14-1.27.69-.4,1.3-.89,1.83-1.47l.82,2.15h5.68v-13.95c0-3.43-.95-6.02-2.86-7.78-1.91-1.76-4.68-2.64-8.3-2.64ZM216.85,78.6c-.72.38-1.52.56-2.4.56-1.08,0-1.93-.24-2.55-.71-.62-.47-.93-1.13-.93-1.98s.34-1.56,1.03-2.03c.69-.47,1.65-.71,2.89-.71,1.38,0,2.6.29,3.67.86v2.51c-.49.65-1.06,1.16-1.71,1.5Z"/>
          <path class="cls-2" d="M232.51,53.9v6.12h-3.92v6.36h3.92v8.86c0,2.91.8,5.16,2.4,6.76,1.6,1.6,3.85,2.4,6.76,2.4,2.25,0,4.28-.39,6.07-1.18l-1.71-6.02c-.49.16-.98.3-1.47.42-.49.11-1,.17-1.52.17-.98,0-1.73-.26-2.25-.78-.52-.52-.78-1.27-.78-2.25v-8.37h6.56v-6.36h-6.56v-7.98l-7.49,1.86Z"/>
          <path class="cls-2" d="M255.77,82c1.6,1.6,3.85,2.4,6.76,2.4,2.25,0,4.28-.39,6.07-1.18l-1.71-6.02c-.49.16-.98.3-1.47.42-.49.11-1,.17-1.52.17-.98,0-1.73-.26-2.25-.78-.52-.52-.78-1.27-.78-2.25v-8.37h6.56v-6.36h-6.56v-7.98l-7.49,1.86v6.12h-3.92v6.36h3.92v8.86c0,2.91.8,5.16,2.4,6.76Z"/>
          <path class="cls-2" d="M283.18,84.4c2.71,0,5.03-.51,6.95-1.52,1.93-1.01,3.41-2.44,4.45-4.28,1.04-1.84,1.57-4.09,1.57-6.73,0-3.88-1.14-6.93-3.43-9.13-2.28-2.2-5.47-3.3-9.55-3.3-2.71,0-5.03.5-6.98,1.49-1.94,1-3.43,2.42-4.46,4.28-1.03,1.86-1.54,4.08-1.54,6.66,0,3.95,1.15,7.03,3.45,9.23,2.3,2.2,5.47,3.3,9.52,3.3ZM278.56,68.73c.41-.88,1-1.56,1.79-2.03.78-.47,1.73-.71,2.84-.71,1.63,0,2.91.53,3.84,1.59.93,1.06,1.4,2.49,1.4,4.28,0,1.27-.21,2.34-.64,3.21-.42.87-1.03,1.53-1.81,2.01-.78.47-1.71.71-2.79.71-1.63,0-2.91-.52-3.84-1.57-.93-1.04-1.4-2.5-1.4-4.36,0-1.21.2-2.25.61-3.13Z"/>
          <path class="cls-2" d="M319.07,72.53c-.62-.96-1.43-1.7-2.42-2.2-1-.51-2.04-.86-3.13-1.08-1.09-.21-2.13-.38-3.11-.51-.65-.1-1.27-.2-1.86-.32-.59-.11-1.05-.28-1.37-.51-.33-.23-.49-.55-.49-.98,0-.52.27-.92.81-1.2.54-.28,1.26-.42,2.18-.42,1.24,0,2.33.17,3.26.51.93.34,1.82.76,2.67,1.25l3.82-4.7c-2.58-1.96-5.83-2.94-9.74-2.94-2.12,0-3.97.31-5.53.93-1.57.62-2.78,1.51-3.65,2.67-.87,1.16-1.3,2.54-1.3,4.14,0,1.5.29,2.71.88,3.62.59.91,1.36,1.62,2.33,2.13.96.51,1.97.87,3.04,1.1,1.06.23,2.06.41,3.01.54.75.1,1.44.21,2.06.34.62.13,1.11.33,1.47.59.36.26.54.62.54,1.08,0,.62-.29,1.09-.88,1.42s-1.39.49-2.4.49c-1.4,0-2.64-.22-3.72-.66s-2.11-.99-3.08-1.64l-3.82,4.7c1.44,1.17,3.04,2.06,4.8,2.64,1.76.59,3.7.88,5.83.88s4.09-.33,5.7-.98c1.62-.65,2.86-1.58,3.74-2.79.88-1.21,1.32-2.64,1.32-4.31,0-1.57-.31-2.83-.93-3.79Z"/>
          <path class="cls-2" d="M175.21,102.24c1.32-.8,2.91-1.2,4.77-1.2s3.43.39,4.6,1.17c1.17.78,2.19,1.76,3.04,2.94l6.85-3.48c-3.23-5.09-8.16-7.64-14.79-7.64-3.46,0-6.45.68-8.96,2.03-2.51,1.35-4.44,3.3-5.78,5.85-1.34,2.55-2.01,5.6-2.01,9.16s.67,6.61,2.01,9.16c1.34,2.55,3.26,4.5,5.78,5.85,2.51,1.35,5.5,2.03,8.96,2.03,6.62,0,11.55-2.55,14.79-7.64l-6.85-3.48c-.85,1.18-1.86,2.15-3.04,2.91-1.18.77-2.71,1.15-4.6,1.15-2.81,0-4.99-.88-6.54-2.64-1.55-1.76-2.33-4.21-2.33-7.34,0-2.09.35-3.88,1.05-5.39.7-1.5,1.71-2.65,3.04-3.45Z"/>
          <path class="cls-2" d="M213.23,119.23c-1.25,1.51-2.81,2.28-4.7,2.28-1.14,0-2.04-.33-2.69-.98-.65-.65-.98-1.53-.98-2.64v-14.15h-7.49v14.79c0,3,.82,5.35,2.47,7.05,1.65,1.7,3.94,2.55,6.88,2.55,3.16,0,5.61-1.02,7.38-3.02l.94,2.44h5.68v-23.79h-7.49v15.49Z"/>
          <path class="cls-2" d="M239.91,103.15c-3.16,0-5.62,1.01-7.39,3.01l-.93-2.42h-5.68v23.79h7.49v-15.54c1.25-1.51,2.81-2.28,4.7-2.28,1.18,0,2.08.32,2.72.95s.95,1.54.95,2.72v14.15h7.49v-14.83c0-2.97-.83-5.3-2.5-7-1.66-1.7-3.95-2.55-6.85-2.55Z"/>
          <path class="cls-2" d="M268.15,103.15c-2.67,0-4.83.72-6.51,2.14v-12.76l-7.49,1.91v33.09h7.49v-15.54c1.25-1.51,2.81-2.28,4.7-2.28,1.17,0,2.08.32,2.72.95.64.64.95,1.54.95,2.72v14.15h7.49v-14.83c0-2.97-.83-5.3-2.5-7-1.66-1.7-3.95-2.55-6.85-2.55Z"/>
          <path class="cls-2" d="M292.24,103.15c-3.69,0-7.03.88-10.04,2.64l3.62,5.14c.88-.46,1.79-.85,2.74-1.18.95-.33,2.01-.49,3.18-.49,1.44,0,2.52.34,3.26,1,.73.67,1.1,1.62,1.1,2.86v.38c-1.49-.57-3.15-.87-4.99-.87-3.17,0-5.64.68-7.42,2.03-1.78,1.35-2.67,3.26-2.67,5.7s.81,4.23,2.42,5.63c1.62,1.4,3.78,2.11,6.49,2.11,1.96,0,3.67-.42,5.14-1.27.69-.4,1.3-.89,1.83-1.47l.82,2.15h5.68v-13.95c0-3.43-.95-6.02-2.86-7.78-1.91-1.76-4.68-2.64-8.3-2.64ZM294.4,122.32c-.72.38-1.52.56-2.4.56-1.08,0-1.93-.24-2.55-.71-.62-.47-.93-1.13-.93-1.98s.34-1.56,1.03-2.03c.69-.47,1.65-.71,2.89-.71,1.38,0,2.6.29,3.67.86v2.51c-.49.65-1.06,1.16-1.71,1.5Z"/>
        </g>
      </g>
    </g>
  </g>
</svg>