<?xml version="1.0" encoding="UTF-8"?>
<svg xmlns="http://www.w3.org/2000/svg" version="1.1" viewBox="0 0 330 142">
  <defs>
    <style>
      .cls-1 {
        fill: #e6e6e6;
      }

      .cls-2 {
        fill: #fff;
      }
    </style>
  </defs>
  <!-- Generator: Adobe Illustrator 28.7.1, SVG Export Plug-In . SVG Version: 1.2.0 Build 142)  -->
  <g>
    <g id="Camada_1">
      <g>
        <g>
          <polygon class="cls-1" points="38.53 16.39 29.89 16.39 4.74 16.39 4.74 50.18 4.74 83.97 4.74 117.77 38.53 117.77 38.53 83.97 38.53 50.18 71.03 50.18 71.03 16.39 38.53 16.39"/>
          <polygon class="cls-2" points="72.39 16.39 72.39 50.18 72.39 83.97 39.94 83.97 39.94 117.77 72.39 117.77 106.18 117.77 106.18 83.97 106.18 50.18 106.18 16.39 72.39 16.39"/>
        </g>
        <g>
          <g>
            <path class="cls-2" d="M135.96,73.83v-36.44h10.35l9.05,18.5,9-18.5h10.3v36.44h-10.64v-18.22l-5.83,11.99h-5.71l-5.88-11.99v18.22h-10.64Z"/>
            <path class="cls-2" d="M190.95,74.39c-1.7,0-3.27-.3-4.72-.91-1.45-.6-2.61-1.55-3.48-2.83-.87-1.28-1.3-2.9-1.3-4.87,0-2.83.94-5.03,2.83-6.59,1.89-1.56,4.73-2.35,8.54-2.35h6.96v-.51c0-1.06-.43-1.83-1.3-2.32-.87-.49-2.4-.74-4.58-.74-3.09,0-6.15.47-9.17,1.41v-6.39c1.36-.53,3.06-.97,5.09-1.33,2.04-.36,4.11-.54,6.22-.54,4.26,0,7.64.87,10.13,2.6,2.49,1.74,3.73,4.49,3.73,8.26v16.52h-9.28l-.51-2.15c-.94.83-2.16,1.49-3.65,1.98-1.49.49-3.33.74-5.52.74ZM194.57,68.17c1.21,0,2.23-.21,3.08-.62.85-.41,1.56-.92,2.12-1.53v-3.34h-5.15c-2.34,0-3.51.92-3.51,2.77s1.15,2.72,3.45,2.72Z"/>
            <path class="cls-2" d="M229.03,74.39c-3.58,0-6.19-.91-7.81-2.72-1.62-1.81-2.43-4.26-2.43-7.36v-9.45h-3.51v-7.86h3.51v-5.49l10.64-2.55v8.03h6.17l-.4,7.86h-5.77v8.66c0,1.13.28,1.93.85,2.4.57.47,1.43.71,2.6.71,1.09,0,2.21-.19,3.34-.57v7.07c-2,.83-4.39,1.24-7.19,1.24Z"/>
            <path class="cls-2" d="M253.36,74.39c-3.58,0-6.19-.91-7.81-2.72-1.62-1.81-2.43-4.26-2.43-7.36v-9.45h-3.51v-7.86h3.51v-5.49l10.64-2.55v8.03h6.17l-.4,7.86h-5.77v8.66c0,1.13.28,1.93.85,2.4.57.47,1.43.71,2.6.71,1.09,0,2.21-.19,3.34-.57v7.07c-2,.83-4.39,1.24-7.19,1.24Z"/>
            <path class="cls-2" d="M280.74,74.39c-5.36,0-9.31-1.19-11.85-3.56-2.55-2.38-3.82-5.85-3.82-10.41s1.28-7.99,3.85-10.38c2.56-2.39,6.51-3.59,11.83-3.59s9.33,1.2,11.91,3.59c2.58,2.4,3.88,5.86,3.88,10.38s-1.28,8.03-3.85,10.41c-2.57,2.38-6.54,3.56-11.94,3.56ZM280.74,66.64c1.73,0,2.99-.49,3.76-1.47.77-.98,1.16-2.56,1.16-4.75s-.39-3.72-1.16-4.72c-.77-1-2.03-1.5-3.76-1.5s-2.92.5-3.68,1.5c-.75,1-1.13,2.57-1.13,4.72s.38,3.77,1.13,4.75c.75.98,1.98,1.47,3.68,1.47Z"/>
            <path class="cls-2" d="M313.5,74.39c-2.3,0-4.46-.16-6.48-.48-2.02-.32-3.61-.73-4.78-1.22v-7.64c1.32.6,2.89,1.08,4.72,1.41,1.83.34,3.39.51,4.67.51,1.36,0,2.39-.04,3.08-.11.7-.08,1.05-.4,1.05-.96,0-.64-.62-1.13-1.87-1.47-1.24-.34-2.81-.83-4.7-1.47-2.45-.87-4.28-1.89-5.49-3.06-1.21-1.17-1.81-2.87-1.81-5.09,0-2.68,1.06-4.74,3.17-6.2,2.11-1.45,5.43-2.18,9.96-2.18,1.73,0,3.53.13,5.38.4,1.85.26,3.3.57,4.36.91v7.47c-1.13-.49-2.37-.85-3.71-1.07-1.34-.23-2.56-.34-3.65-.34-1.21,0-2.28.06-3.22.17-.94.11-1.41.43-1.41.96,0,.6.54,1.04,1.61,1.3,1.07.26,2.52.68,4.33,1.24,2.04.6,3.63,1.26,4.78,1.98,1.15.72,1.96,1.58,2.43,2.6.47,1.02.71,2.28.71,3.79,0,2.72-1.1,4.82-3.31,6.31-2.21,1.49-5.48,2.23-9.82,2.23Z"/>
            <path class="cls-2" d="M155.14,118.34c-6.6,0-11.64-1.62-15.11-4.87-3.47-3.24-5.21-7.83-5.21-13.75s1.7-10.8,5.09-14.06c3.39-3.26,8.45-4.89,15.16-4.89,2.26,0,4.28.17,6.05.51,1.77.34,3.47.81,5.09,1.41v9.28c-3.24-1.43-6.71-2.15-10.41-2.15-3.43,0-5.98.78-7.64,2.35-1.66,1.57-2.49,4.08-2.49,7.55s.88,5.84,2.63,7.33c1.75,1.49,4.29,2.23,7.61,2.23,1.81,0,3.57-.17,5.29-.51,1.72-.34,3.42-.87,5.12-1.58v9.34c-1.62.57-3.33,1.01-5.12,1.33-1.79.32-3.82.48-6.08.48Z"/>
            <path class="cls-2" d="M182.86,118.34c-3.13,0-5.58-.89-7.36-2.66-1.77-1.77-2.66-4.38-2.66-7.81v-16.92h10.64v16.07c0,2.34,1.19,3.51,3.56,3.51.87,0,1.72-.19,2.55-.57.83-.38,1.49-.85,1.98-1.41v-17.6h10.64v26.82h-9.96l-.28-2.04c-1.06.75-2.35,1.38-3.88,1.87-1.53.49-3.27.74-5.23.74Z"/>
            <path class="cls-2" d="M210.13,117.77v-26.82h9.96l.28,2.04c1.02-.68,2.37-1.28,4.05-1.81,1.68-.53,3.48-.79,5.4-.79,3.36,0,5.81.83,7.36,2.49,1.55,1.66,2.32,4.22,2.32,7.69v17.2h-10.64v-16.12c0-1.21-.26-2.07-.79-2.6-.53-.53-1.45-.79-2.77-.79-.79,0-1.61.19-2.46.57-.85.38-1.54.83-2.07,1.36v17.6h-10.64Z"/>
            <path class="cls-2" d="M247.13,117.77v-38.13h10.64v12.96c.94-.64,2.12-1.17,3.54-1.58,1.41-.41,2.93-.62,4.55-.62,3.7,0,6.39.86,8.09,2.57,1.7,1.72,2.55,4.37,2.55,7.95v16.86h-10.69v-16.07c0-1.24-.25-2.13-.76-2.66-.51-.53-1.42-.79-2.74-.79-.79,0-1.61.19-2.46.57-.85.38-1.54.83-2.07,1.36v17.6h-10.64Z"/>
            <path class="cls-2" d="M291.66,118.34c-1.7,0-3.27-.3-4.72-.91-1.45-.6-2.61-1.55-3.48-2.83-.87-1.28-1.3-2.9-1.3-4.87,0-2.83.94-5.03,2.83-6.59,1.89-1.56,4.73-2.35,8.54-2.35h6.96v-.51c0-1.06-.43-1.83-1.3-2.32-.87-.49-2.4-.74-4.58-.74-3.09,0-6.15.47-9.17,1.41v-6.39c1.36-.53,3.06-.97,5.09-1.33,2.04-.36,4.11-.54,6.22-.54,4.26,0,7.64.87,10.13,2.6,2.49,1.74,3.73,4.49,3.73,8.26v16.52h-9.28l-.51-2.15c-.94.83-2.16,1.49-3.65,1.98-1.49.49-3.33.74-5.52.74ZM295.28,112.12c1.21,0,2.23-.21,3.08-.62.85-.41,1.56-.92,2.12-1.53v-3.34h-5.15c-2.34,0-3.51.92-3.51,2.77s1.15,2.72,3.45,2.72Z"/>
          </g>
          <g>
            <path class="cls-2" d="M142.86,32.48c-2.33,0-4.1-.64-5.3-1.92-1.2-1.28-1.79-3-1.79-5.18,0-1.56.25-2.9.76-4.02s1.28-1.99,2.32-2.6c1.04-.61,2.37-.91,3.99-.91.82,0,1.57.06,2.26.19.68.12,1.32.29,1.91.5v2.09c-.59-.23-1.22-.41-1.88-.54-.67-.12-1.37-.19-2.1-.19-1.76,0-3.01.47-3.73,1.41-.73.94-1.09,2.3-1.09,4.07,0,1.66.4,2.92,1.19,3.78.79.86,2.02,1.29,3.68,1.29.68,0,1.35-.06,2.04-.17s1.32-.28,1.93-.52v2.11c-.59.19-1.22.34-1.91.44s-1.44.15-2.26.15Z"/>
            <path class="cls-2" d="M156.3,32.48c-2.25,0-3.93-.59-5.04-1.77-1.12-1.18-1.67-3.01-1.67-5.49s.56-4.46,1.67-5.62c1.12-1.16,2.8-1.74,5.04-1.74s3.95.58,5.05,1.74c1.11,1.16,1.66,3.03,1.66,5.62s-.55,4.31-1.66,5.49c-1.11,1.18-2.79,1.77-5.05,1.77ZM156.3,30.45c1.48,0,2.57-.41,3.27-1.22.7-.81,1.05-2.15,1.05-4.02,0-1.97-.35-3.34-1.05-4.13-.7-.79-1.79-1.18-3.27-1.18s-2.55.39-3.25,1.18c-.7.79-1.05,2.16-1.05,4.13,0,1.86.35,3.2,1.05,4.02.7.81,1.78,1.22,3.25,1.22Z"/>
            <path class="cls-2" d="M166.45,32.26v-14.18h2.11l7.4,10.44v-10.44h2.38v14.18h-2.11l-7.38-10.42v10.42h-2.4Z"/>
            <path class="cls-2" d="M186.53,32.48c-1.84,0-3.31-.23-4.43-.7v-2.11c.63.24,1.31.43,2.04.57.73.15,1.45.22,2.17.22,1.13,0,1.98-.13,2.54-.4.56-.26.85-.79.85-1.59,0-.48-.12-.87-.35-1.17-.23-.29-.62-.55-1.17-.76-.54-.21-1.29-.44-2.25-.67-1.53-.4-2.6-.9-3.22-1.51-.62-.61-.92-1.45-.92-2.52,0-1.25.45-2.22,1.37-2.93.91-.7,2.27-1.06,4.07-1.06.82,0,1.6.06,2.32.18.73.12,1.3.25,1.71.4v2.11c-1.12-.43-2.35-.64-3.7-.64-1.06,0-1.88.14-2.47.42-.59.28-.88.79-.88,1.52,0,.43.1.77.31,1.04.21.26.56.49,1.07.68.51.19,1.21.4,2.1.64,1.16.29,2.06.64,2.7,1.05.64.4,1.09.87,1.34,1.41.26.54.39,1.14.39,1.82,0,1.25-.46,2.23-1.39,2.94-.92.71-2.33,1.07-4.21,1.07Z"/>
            <path class="cls-2" d="M198.36,32.26v-12.31h-4.54v-1.87h11.45v1.87h-4.51v12.31h-2.4Z"/>
            <path class="cls-2" d="M208.29,32.26v-14.18h6.52c1.59,0,2.74.41,3.47,1.22.73.81,1.09,1.92,1.09,3.31,0,1-.25,1.85-.75,2.55-.5.7-1.22,1.2-2.16,1.48.26.19.47.4.62.62.15.22.29.51.44.88l1.78,4.12h-2.47l-1.74-3.96c-.16-.38-.36-.65-.58-.81-.23-.16-.61-.24-1.16-.24h-2.66v5.02h-2.4ZM210.69,25.3h3.48c.87,0,1.55-.21,2.05-.64.5-.43.75-1.11.75-2.05,0-1.78-.86-2.66-2.58-2.66h-3.7v5.35Z"/>
            <path class="cls-2" d="M228.88,32.48c-1.95,0-3.47-.47-4.55-1.41-1.08-.94-1.62-2.3-1.62-4.07v-8.92h2.4v8.83c0,1.19.33,2.08.98,2.66.65.59,1.58.88,2.79.88s2.11-.29,2.76-.88c.65-.59.98-1.48.98-2.66v-8.83h2.38v8.92c0,1.78-.54,3.13-1.61,4.07-1.07.94-2.58,1.41-4.51,1.41Z"/>
            <path class="cls-2" d="M242.45,32.26v-12.31h-4.54v-1.87h11.45v1.87h-4.51v12.31h-2.4Z"/>
            <path class="cls-2" d="M258.44,32.48c-2.25,0-3.93-.59-5.04-1.77-1.12-1.18-1.67-3.01-1.67-5.49s.56-4.46,1.67-5.62c1.12-1.16,2.8-1.74,5.04-1.74s3.95.58,5.05,1.74c1.11,1.16,1.66,3.03,1.66,5.62s-.55,4.31-1.66,5.49c-1.11,1.18-2.79,1.77-5.05,1.77ZM258.44,30.45c1.48,0,2.57-.41,3.27-1.22.7-.81,1.05-2.15,1.05-4.02,0-1.97-.35-3.34-1.05-4.13-.7-.79-1.79-1.18-3.27-1.18s-2.55.39-3.25,1.18c-.7.79-1.05,2.16-1.05,4.13,0,1.86.35,3.2,1.05,4.02.7.81,1.78,1.22,3.25,1.22Z"/>
            <path class="cls-2" d="M268.59,32.26v-14.18h6.52c1.59,0,2.74.41,3.47,1.22.73.81,1.09,1.92,1.09,3.31,0,1-.25,1.85-.75,2.55-.5.7-1.22,1.2-2.16,1.48.26.19.47.4.62.62.15.22.29.51.44.88l1.78,4.12h-2.47l-1.74-3.96c-.16-.38-.36-.65-.58-.81-.23-.16-.61-.24-1.16-.24h-2.66v5.02h-2.4ZM270.99,25.3h3.48c.87,0,1.55-.21,2.05-.64.5-.43.75-1.11.75-2.05,0-1.78-.86-2.66-2.58-2.66h-3.7v5.35Z"/>
            <path class="cls-2" d="M281.72,32.26l5.42-14.18h2.69l5.37,14.18h-2.47l-1.41-3.66h-5.7l-1.41,3.66h-2.49ZM285.99,26.75h4.93l-2.47-6.5-2.47,6.5Z"/>
          </g>
        </g>
      </g>
    </g>
  </g>
</svg>