<?xml version="1.0" encoding="UTF-8"?>
<svg xmlns="http://www.w3.org/2000/svg" version="1.1" viewBox="0 0 330 142">
  <defs>
    <style>
      .cls-1 {
        fill: #e6e6e6;
      }

      .cls-2 {
        fill: #fff;
      }
    </style>
  </defs>
  <!-- Generator: Adobe Illustrator 28.7.1, SVG Export Plug-In . SVG Version: 1.2.0 Build 142)  -->
  <g>
    <g id="Camada_1">
      <g>
        <g>
          <polygon class="cls-1" points="50.37 15.37 41.56 15.37 15.9 15.37 15.9 49.84 15.9 84.31 15.9 118.78 50.37 118.78 50.37 84.31 50.37 49.84 83.52 49.84 83.52 15.37 50.37 15.37"/>
          <polygon class="cls-2" points="84.91 15.37 84.91 49.84 84.91 84.31 51.81 84.31 51.81 118.78 84.91 118.78 119.38 118.78 119.38 84.31 119.38 49.84 119.38 15.37 84.91 15.37"/>
        </g>
        <g>
          <g>
            <polygon class="cls-2" points="156.92 51.15 164.77 62.51 169.82 62.51 177.62 51.23 177.62 73.07 185.57 73.07 185.57 38.13 178.14 38.13 167.32 53.78 156.46 38.13 148.97 38.13 148.97 73.07 156.92 73.07 156.92 51.15"/>
            <path class="cls-2" d="M202.16,47.18c-3.92,0-7.47.94-10.66,2.81l3.85,5.46c.94-.48,1.91-.9,2.91-1.25,1-.35,2.13-.52,3.38-.52,1.52,0,2.68.36,3.46,1.07.78.71,1.17,1.72,1.17,3.04v.39c-1.58-.6-3.35-.91-5.3-.91-3.36,0-5.99.72-7.88,2.16-1.89,1.44-2.83,3.46-2.83,6.06s.86,4.49,2.57,5.98c1.72,1.49,4.01,2.24,6.89,2.24,2.08,0,3.9-.45,5.46-1.35.73-.42,1.38-.95,1.94-1.56l.87,2.28h6.03v-14.82c0-3.64-1.01-6.4-3.04-8.27-2.03-1.87-4.97-2.81-8.81-2.81ZM204.45,67.53c-.76.4-1.61.6-2.55.6-1.14,0-2.05-.25-2.7-.75-.66-.5-.99-1.2-.99-2.11s.36-1.65,1.09-2.16c.73-.5,1.75-.75,3.07-.75,1.46,0,2.76.31,3.9.91v2.67c-.52.69-1.13,1.23-1.82,1.59Z"/>
            <path class="cls-2" d="M221.09,63.97c0,3.09.85,5.48,2.55,7.18,1.7,1.7,4.09,2.55,7.18,2.55,2.39,0,4.54-.42,6.45-1.25l-1.82-6.4c-.52.17-1.04.32-1.56.44s-1.06.18-1.61.18c-1.04,0-1.84-.28-2.39-.83-.56-.55-.83-1.35-.83-2.39v-8.89h6.97v-6.76h-6.97v-8.48l-7.96,1.98v6.5h-4.16v6.76h4.16v9.41Z"/>
            <path class="cls-2" d="M245.78,71.15c1.7,1.7,4.09,2.55,7.18,2.55,2.39,0,4.54-.42,6.45-1.25l-1.82-6.4c-.52.17-1.04.32-1.56.44s-1.06.18-1.61.18c-1.04,0-1.84-.28-2.39-.83-.56-.55-.83-1.35-.83-2.39v-8.89h6.97v-6.76h-6.97v-8.48l-7.96,1.98v6.5h-4.16v6.76h4.16v9.41c0,3.09.85,5.48,2.55,7.18Z"/>
            <path class="cls-2" d="M274.9,73.69c2.88,0,5.34-.54,7.38-1.61,2.04-1.07,3.62-2.59,4.73-4.55,1.11-1.96,1.66-4.34,1.66-7.15,0-4.12-1.21-7.36-3.64-9.7-2.43-2.34-5.81-3.51-10.14-3.51-2.88,0-5.35.53-7.41,1.59-2.06,1.06-3.64,2.57-4.73,4.55-1.09,1.98-1.64,4.33-1.64,7.07,0,4.19,1.22,7.46,3.67,9.8,2.44,2.34,5.81,3.51,10.11,3.51ZM269.99,57.05c.43-.94,1.07-1.65,1.9-2.16s1.84-.75,3.02-.75c1.73,0,3.09.56,4.08,1.69.99,1.13,1.48,2.64,1.48,4.55,0,1.35-.23,2.49-.68,3.41-.45.92-1.09,1.63-1.92,2.13-.83.5-1.82.75-2.96.75-1.73,0-3.09-.55-4.08-1.66-.99-1.11-1.48-2.65-1.48-4.63,0-1.28.22-2.39.65-3.33Z"/>
            <path class="cls-2" d="M313.01,61.08c-.66-1.02-1.52-1.8-2.57-2.34-1.06-.54-2.17-.92-3.33-1.14-1.16-.22-2.26-.41-3.3-.55-.69-.1-1.35-.22-1.98-.34-.62-.12-1.11-.3-1.46-.55-.35-.24-.52-.59-.52-1.04,0-.55.29-.98.86-1.27s1.34-.44,2.31-.44c1.32,0,2.47.18,3.46.55.99.36,1.93.81,2.83,1.33l4.06-4.99c-2.74-2.08-6.19-3.12-10.35-3.12-2.25,0-4.21.33-5.88.99-1.66.66-2.96,1.6-3.87,2.83-.92,1.23-1.38,2.7-1.38,4.39,0,1.6.31,2.88.94,3.85.62.97,1.45,1.72,2.47,2.26s2.1.93,3.22,1.17,2.19.43,3.2.57c.8.1,1.52.23,2.18.36.66.14,1.18.35,1.56.62.38.28.57.66.57,1.14,0,.66-.31,1.16-.94,1.51-.62.35-1.47.52-2.55.52-1.49,0-2.81-.23-3.95-.7-1.14-.47-2.24-1.05-3.28-1.74l-4.06,4.99c1.53,1.25,3.22,2.18,5.1,2.81,1.87.62,3.93.94,6.19.94s4.34-.35,6.06-1.04c1.72-.69,3.04-1.68,3.98-2.96.94-1.28,1.4-2.81,1.4-4.58,0-1.66-.33-3.01-.99-4.03Z"/>
            <path class="cls-2" d="M160.23,91.88c1.4-.85,3.09-1.27,5.07-1.27s3.64.42,4.89,1.25c1.25.83,2.32,1.87,3.22,3.12l7.28-3.69c-3.43-5.41-8.67-8.11-15.7-8.11-3.67,0-6.85.72-9.51,2.16-2.67,1.44-4.71,3.51-6.14,6.21-1.42,2.7-2.13,5.95-2.13,9.72s.71,7.02,2.13,9.72c1.42,2.7,3.47,4.78,6.14,6.21,2.67,1.44,5.84,2.16,9.51,2.16,7.04,0,12.27-2.7,15.7-8.11l-7.28-3.69c-.9,1.25-1.98,2.28-3.22,3.09-1.25.82-2.88,1.22-4.89,1.22-2.98,0-5.29-.94-6.94-2.81-1.65-1.87-2.47-4.47-2.47-7.8,0-2.22.37-4.12,1.12-5.72.74-1.59,1.82-2.82,3.22-3.67Z"/>
            <path class="cls-2" d="M200.6,109.92c-1.33,1.61-2.99,2.42-4.99,2.42-1.21,0-2.17-.35-2.86-1.04-.69-.69-1.04-1.63-1.04-2.81v-15.03h-7.96v15.7c0,3.19.87,5.69,2.63,7.49,1.75,1.8,4.19,2.7,7.31,2.7,3.35,0,5.97-1.07,7.85-3.19l.99,2.57h6.03v-25.27h-7.96v16.46Z"/>
            <path class="cls-2" d="M228.94,92.84c-3.36,0-5.98,1.06-7.86,3.17l-.98-2.55h-6.03v25.27h7.96v-16.51c1.33-1.61,2.99-2.42,4.99-2.42,1.25,0,2.21.34,2.89,1.01.68.68,1.01,1.64,1.01,2.89v15.03h7.96v-15.75c0-3.15-.88-5.63-2.65-7.44-1.77-1.8-4.19-2.7-7.28-2.7Z"/>
            <path class="cls-2" d="M258.94,92.84c-2.83,0-5.13.76-6.92,2.26v-13.54l-7.96,2.03v35.15h7.96v-16.51c1.33-1.61,2.99-2.42,4.99-2.42,1.25,0,2.21.34,2.89,1.01s1.01,1.64,1.01,2.89v15.03h7.96v-15.75c0-3.15-.88-5.63-2.65-7.44-1.77-1.8-4.19-2.7-7.28-2.7Z"/>
            <path class="cls-2" d="M284.52,92.84c-3.92,0-7.47.94-10.66,2.81l3.85,5.46c.94-.48,1.91-.9,2.91-1.25,1-.35,2.13-.52,3.38-.52,1.52,0,2.68.36,3.46,1.07.78.71,1.17,1.72,1.17,3.04v.39c-1.58-.6-3.35-.91-5.3-.91-3.36,0-5.99.72-7.88,2.16-1.89,1.44-2.83,3.46-2.83,6.06s.86,4.49,2.57,5.98c1.72,1.49,4.01,2.24,6.89,2.24,2.08,0,3.9-.45,5.46-1.35.73-.42,1.38-.95,1.94-1.56l.87,2.28h6.03v-14.82c0-3.64-1.01-6.4-3.04-8.27-2.03-1.87-4.97-2.81-8.81-2.81ZM286.81,113.2c-.76.4-1.61.6-2.55.6-1.14,0-2.05-.25-2.7-.75-.66-.5-.99-1.2-.99-2.11s.36-1.65,1.09-2.16c.73-.5,1.75-.75,3.07-.75,1.46,0,2.76.31,3.9.91v2.67c-.52.69-1.13,1.23-1.82,1.59Z"/>
          </g>
          <g>
            <path class="cls-2" d="M154.72,19.72l-5.63,13.55h2.4l1.35-3.39h6.07l1.35,3.39h2.38l-5.63-13.55h-2.3ZM153.58,28.01l2.28-5.75,2.3,5.75h-4.58Z"/>
            <path class="cls-2" d="M177.1,26.06h-6.25v1.86h3.94c-.07.59-.21,1.12-.43,1.57-.32.66-.79,1.16-1.4,1.51-.61.35-1.36.52-2.23.52s-1.68-.2-2.33-.62c-.65-.41-1.15-.99-1.5-1.73-.35-.75-.52-1.64-.52-2.67s.18-1.95.53-2.7c.36-.75.86-1.33,1.52-1.72.66-.4,1.45-.59,2.38-.59s1.72.19,2.32.56c.61.38,1.12.89,1.53,1.53l2-.95c-1.25-2.1-3.21-3.15-5.87-3.15-1.4,0-2.6.28-3.6.84-1,.56-1.77,1.36-2.31,2.41-.54,1.05-.81,2.31-.81,3.77s.27,2.67.82,3.72c.54,1.06,1.31,1.87,2.31,2.44,1,.57,2.17.86,3.53.86s2.49-.27,3.45-.81c.95-.54,1.69-1.31,2.2-2.32.51-1.01.77-2.21.77-3.59,0-.12,0-.25,0-.37,0-.13-.02-.25-.03-.37Z"/>
            <path class="cls-2" d="M188.6,27.69c.69-.34,1.21-.82,1.58-1.44.37-.63.55-1.39.55-2.29,0-1.37-.4-2.42-1.2-3.15-.8-.73-1.93-1.09-3.4-1.09h-5.63v13.55h2.24v-5.08h2.2l3.47,5.08h2.62l-3.65-5.2c.44-.08.84-.21,1.21-.39ZM182.75,21.66h3.21c.79,0,1.41.2,1.84.6.43.4.65.96.65,1.7s-.21,1.31-.65,1.7c-.43.4-1.04.59-1.84.59h-3.21v-4.6Z"/>
            <path class="cls-2" d="M203.85,20.32c-1.01-.56-2.22-.84-3.63-.84s-2.63.28-3.64.84c-1.02.56-1.79,1.36-2.33,2.41-.54,1.05-.81,2.31-.81,3.77s.27,2.72.81,3.77c.54,1.05,1.31,1.85,2.33,2.41s2.23.84,3.64.84,2.62-.28,3.63-.84,1.79-1.36,2.33-2.41c.54-1.05.82-2.31.82-3.77s-.27-2.72-.82-3.77c-.54-1.05-1.32-1.85-2.33-2.41ZM204.11,29.16c-.35.74-.85,1.31-1.51,1.7s-1.45.59-2.38.59c-1.38,0-2.47-.44-3.25-1.31-.78-.87-1.17-2.09-1.17-3.65,0-1.04.17-1.92.52-2.66.35-.74.85-1.31,1.51-1.7.66-.4,1.45-.59,2.38-.59,1.38,0,2.47.44,3.25,1.31s1.17,2.09,1.17,3.65c0,1.04-.17,1.92-.52,2.66Z"/>
            <path class="cls-2" d="M215.87,19.72h-5.51v13.55h2.24v-4.84h3.27c1.51,0,2.67-.38,3.49-1.14.82-.76,1.23-1.83,1.23-3.22s-.41-2.46-1.23-3.22c-.82-.76-1.98-1.14-3.49-1.14ZM217.64,25.83c-.44.41-1.07.62-1.89.62h-3.15v-4.72h3.15c.82,0,1.45.2,1.89.61.44.4.66.99.66,1.76s-.22,1.33-.66,1.74Z"/>
            <polygon class="cls-2" points="226.14 27.35 231.1 27.35 231.1 25.47 226.14 25.47 226.14 21.66 233.04 21.66 233.04 19.72 223.84 19.72 223.84 33.28 233.28 33.28 233.28 31.34 226.14 31.34 226.14 27.35"/>
            <path class="cls-2" d="M239.97,22.13c.67-.4,1.46-.59,2.37-.59s1.67.19,2.28.56c.61.38,1.12.89,1.53,1.53l2-1.01c-1.25-2.1-3.21-3.15-5.87-3.15-1.4,0-2.6.28-3.6.84-1,.56-1.77,1.36-2.31,2.41-.54,1.05-.81,2.31-.81,3.77s.27,2.72.81,3.77c.54,1.05,1.31,1.85,2.31,2.41s2.2.84,3.6.84c2.66,0,4.62-1.05,5.87-3.15l-2-1.01c-.42.65-.93,1.16-1.53,1.53-.6.38-1.37.56-2.28.56-1.39,0-2.47-.44-3.25-1.31-.78-.87-1.17-2.09-1.17-3.65,0-1.04.17-1.92.52-2.66.35-.74.86-1.31,1.52-1.7Z"/>
            <path class="cls-2" d="M260.23,27.95c0,1.13-.3,2-.89,2.6-.59.6-1.43.91-2.5.91s-1.91-.3-2.5-.91c-.59-.61-.89-1.47-.89-2.6v-8.23h-2.3v8.23c0,1.77.49,3.15,1.48,4.11.99.97,2.39,1.45,4.21,1.45,1.21,0,2.24-.22,3.09-.66.85-.44,1.49-1.07,1.94-1.9.44-.83.67-1.83.67-3.02v-8.23h-2.3v8.23Z"/>
            <path class="cls-2" d="M270.61,19.72l-5.63,13.55h2.4l1.35-3.39h6.07l1.35,3.39h2.38l-5.63-13.55h-2.3ZM269.48,28.01l2.28-5.75,2.3,5.75h-4.58Z"/>
            <polygon class="cls-2" points="275.15 15.37 272.65 15.37 270.31 18.33 271.74 19.06 275.15 15.37"/>
            <path class="cls-2" d="M289.57,27.69c.69-.34,1.21-.82,1.58-1.44s.55-1.39.55-2.29c0-1.37-.4-2.42-1.2-3.15-.8-.73-1.93-1.09-3.4-1.09h-5.63v13.55h2.24v-5.08h2.2l3.47,5.08h2.62l-3.65-5.2c.44-.08.84-.21,1.21-.39ZM283.72,21.66h3.21c.79,0,1.41.2,1.84.6.43.4.65.96.65,1.7s-.22,1.31-.65,1.7c-.43.4-1.04.59-1.84.59h-3.21v-4.6Z"/>
            <rect class="cls-2" x="295.2" y="19.72" width="2.3" height="13.55"/>
            <path class="cls-2" d="M311.62,33.28h2.38l-5.63-13.55h-2.3l-5.63,13.55h2.4l1.35-3.39h6.07l1.35,3.39ZM304.94,28.01l2.28-5.75,2.3,5.75h-4.58Z"/>
          </g>
        </g>
      </g>
    </g>
  </g>
</svg>