<?xml version="1.0" encoding="UTF-8"?>
<svg xmlns="http://www.w3.org/2000/svg" version="1.1" viewBox="0 0 330 142">
  <defs>
    <style>
      .cls-1 {
        fill: #e6e6e6;
      }

      .cls-2 {
        fill: #fff;
      }
    </style>
  </defs>
  <!-- Generator: Adobe Illustrator 28.7.1, SVG Export Plug-In . SVG Version: 1.2.0 Build 142)  -->
  <g>
    <g id="Camada_1">
      <g>
        <g>
          <polygon class="cls-1" points="45.39 16.98 36.54 16.98 10.81 16.98 10.81 51.55 10.81 86.13 10.81 120.71 45.39 120.71 45.39 86.13 45.39 51.55 78.63 51.55 78.63 16.98 45.39 16.98"/>
          <polygon class="cls-2" points="80.02 16.98 80.02 51.55 80.02 86.13 46.83 86.13 46.83 120.71 80.02 120.71 114.6 120.71 114.6 86.13 114.6 51.55 114.6 16.98 80.02 16.98"/>
        </g>
        <g>
          <g>
            <path class="cls-2" d="M169.56,72.37c2.08-1.75,3.12-4.22,3.12-7.41,0-2.81-.95-5-2.86-6.58-.73-.6-1.57-1.09-2.51-1.46,1.27-.66,2.28-1.56,2.98-2.7.76-1.23,1.14-2.71,1.14-4.45,0-3.12-1.01-5.52-3.02-7.2-2.01-1.68-4.84-2.52-8.48-2.52h-15.65v34.94h16.43c3.81,0,6.76-.87,8.84-2.63ZM159.42,47.07c1.28,0,2.24.3,2.89.88s.96,1.44.96,2.55-.32,1.96-.96,2.55-1.6.88-2.89.88h-6.92v-6.86h6.92ZM152.51,67.97v-7.49h7.64c1.32,0,2.34.32,3.07.96.73.64,1.09,1.57,1.09,2.78s-.36,2.14-1.09,2.78c-.73.64-1.75.96-3.07.96h-7.64Z"/>
            <path class="cls-2" d="M194.51,72.42l.99,2.57h6.03v-25.27h-7.96v16.46c-1.33,1.61-2.99,2.42-4.99,2.42-1.21,0-2.17-.35-2.86-1.04-.69-.69-1.04-1.63-1.04-2.81v-15.03h-7.96v15.7c0,3.19.87,5.69,2.63,7.49,1.75,1.8,4.19,2.7,7.31,2.7,3.36,0,5.97-1.07,7.85-3.19Z"/>
            <path class="cls-2" d="M219.53,75.61c5.37,0,9.39-1.98,12.06-5.93l-6.55-2.76c-.62.69-1.35,1.27-2.18,1.72-.83.45-1.91.68-3.22.68-2.01,0-3.55-.59-4.63-1.77-.65-.71-1.1-1.63-1.35-2.76h18.41c.07-.52.11-.99.13-1.4.02-.42.03-.81.03-1.2,0-4.09-1.15-7.3-3.46-9.62-2.31-2.32-5.43-3.48-9.39-3.48-2.74,0-5.11.54-7.12,1.61-2.01,1.08-3.57,2.61-4.68,4.6-1.11,1.99-1.66,4.32-1.66,6.99,0,4.19,1.2,7.46,3.61,9.8,2.41,2.34,5.75,3.51,10.01,3.51ZM216.15,55.99c.9-.57,1.98-.86,3.22-.86,1.18,0,2.16.24,2.94.73.78.49,1.38,1.21,1.79,2.18.19.44.33.93.43,1.46h-10.79c.1-.36.21-.71.35-1.04.47-1.07,1.15-1.9,2.05-2.47Z"/>
            <path class="cls-2" d="M244.54,58.48c1.33-1.61,2.99-2.42,4.99-2.42,1.25,0,2.21.34,2.89,1.01.68.68,1.01,1.64,1.01,2.89v15.03h7.96v-15.75c0-3.15-.88-5.63-2.65-7.44-1.77-1.8-4.19-2.7-7.28-2.7-3.36,0-5.98,1.06-7.86,3.17l-.98-2.55h-6.03v25.27h7.96v-16.51Z"/>
            <path class="cls-2" d="M279.22,49.1c-2.88,0-5.35.53-7.41,1.59-2.06,1.06-3.64,2.57-4.73,4.55-1.09,1.98-1.64,4.33-1.64,7.07,0,4.19,1.22,7.46,3.67,9.8,2.44,2.34,5.81,3.51,10.11,3.51,2.88,0,5.34-.54,7.38-1.61,2.04-1.07,3.62-2.59,4.73-4.55,1.11-1.96,1.66-4.34,1.66-7.15,0-4.12-1.21-7.36-3.64-9.7-2.43-2.34-5.81-3.51-10.14-3.51ZM284.1,65.71c-.45.92-1.09,1.63-1.92,2.13-.83.5-1.82.75-2.96.75-1.73,0-3.09-.55-4.08-1.66-.99-1.11-1.48-2.65-1.48-4.63,0-1.28.22-2.39.65-3.33.43-.94,1.07-1.65,1.9-2.16s1.84-.75,3.02-.75c1.73,0,3.09.56,4.08,1.69.99,1.13,1.48,2.64,1.48,4.55,0,1.35-.23,2.49-.68,3.41Z"/>
            <path class="cls-2" d="M317.33,63.01c-.66-1.02-1.52-1.8-2.57-2.34-1.06-.54-2.17-.92-3.33-1.14-1.16-.22-2.26-.41-3.3-.55-.69-.1-1.35-.22-1.98-.34-.62-.12-1.11-.3-1.46-.55-.35-.24-.52-.59-.52-1.04,0-.55.29-.98.86-1.27s1.34-.44,2.31-.44c1.32,0,2.47.18,3.46.55.99.36,1.93.81,2.83,1.33l4.06-4.99c-2.74-2.08-6.19-3.12-10.35-3.12-2.25,0-4.21.33-5.88.99-1.66.66-2.96,1.6-3.87,2.83-.92,1.23-1.38,2.7-1.38,4.39,0,1.6.31,2.88.94,3.85.62.97,1.45,1.72,2.47,2.26s2.1.93,3.22,1.17,2.19.43,3.2.57c.8.1,1.52.23,2.18.36.66.14,1.18.35,1.56.62.38.28.57.66.57,1.14,0,.66-.31,1.16-.94,1.51-.62.35-1.47.52-2.55.52-1.49,0-2.81-.23-3.95-.7-1.14-.47-2.24-1.05-3.28-1.74l-4.06,4.99c1.53,1.25,3.22,2.18,5.1,2.81,1.87.62,3.93.94,6.19.94s4.34-.35,6.06-1.04c1.72-.69,3.04-1.68,3.98-2.96.94-1.28,1.4-2.81,1.4-4.58,0-1.66-.33-3.01-.99-4.03Z"/>
            <path class="cls-2" d="M155.42,85.72l-14.25,34.94h8.74l2.66-7.07h14.17l2.67,7.07h8.74l-14.25-34.94h-8.48ZM155.1,106.83l4.53-12.06,4.55,12.06h-9.08Z"/>
            <path class="cls-2" d="M184.22,83.58c-1.46,0-2.58.41-3.38,1.22-.8.81-1.2,1.95-1.2,3.41s.4,2.58,1.2,3.38c.8.8,1.92,1.2,3.38,1.2s2.59-.4,3.41-1.2c.81-.8,1.22-1.92,1.22-3.38s-.41-2.59-1.22-3.41c-.82-.81-1.95-1.22-3.41-1.22Z"/>
            <rect class="cls-2" x="180.22" y="95.39" width="7.96" height="25.27"/>
            <path class="cls-2" d="M201.8,96.63c-.43.34-.81.71-1.16,1.13l-.92-2.38h-6.03v25.27h7.96v-15.85c1.34-1.73,3.22-2.61,5.67-2.61.31,0,.6.02.86.05.26.04.53.07.81.1l.57-7.44c-.55-.1-1.16-.16-1.82-.16-2.36,0-4.33.62-5.93,1.87Z"/>
            <path class="cls-2" d="M225.04,94.76c-2.74,0-5.11.54-7.12,1.61-2.01,1.08-3.57,2.61-4.68,4.6-1.11,1.99-1.66,4.32-1.66,6.99,0,4.19,1.2,7.46,3.61,9.8,2.41,2.34,5.75,3.51,10.01,3.51,5.37,0,9.39-1.98,12.06-5.93l-6.55-2.76c-.62.69-1.35,1.27-2.18,1.72-.83.45-1.91.68-3.22.68-2.01,0-3.55-.59-4.63-1.77-.65-.71-1.1-1.63-1.35-2.76h18.41c.07-.52.11-.99.13-1.4.02-.42.03-.81.03-1.2,0-4.09-1.15-7.3-3.46-9.62-2.31-2.32-5.43-3.48-9.39-3.48ZM221.81,101.65c.9-.57,1.98-.86,3.22-.86,1.18,0,2.16.24,2.94.73.78.49,1.38,1.21,1.79,2.18.19.44.33.93.43,1.46h-10.79c.1-.36.21-.71.35-1.04.47-1.07,1.15-1.9,2.05-2.47Z"/>
            <path class="cls-2" d="M259.64,106.33c-1.06-.54-2.17-.92-3.33-1.14-1.16-.22-2.26-.41-3.3-.55-.69-.1-1.35-.22-1.98-.34s-1.11-.3-1.46-.55c-.35-.24-.52-.59-.52-1.04,0-.55.29-.98.86-1.27s1.34-.44,2.31-.44c1.32,0,2.47.18,3.46.55s1.93.81,2.83,1.33l4.06-4.99c-2.74-2.08-6.19-3.12-10.35-3.12-2.25,0-4.21.33-5.88.99-1.66.66-2.96,1.6-3.87,2.83-.92,1.23-1.38,2.7-1.38,4.39,0,1.6.31,2.88.94,3.85.62.97,1.45,1.72,2.47,2.26,1.02.54,2.1.93,3.22,1.17,1.13.24,2.19.43,3.2.57.8.1,1.52.23,2.18.36.66.14,1.18.35,1.56.62.38.28.57.66.57,1.14,0,.66-.31,1.16-.94,1.51-.62.35-1.47.52-2.55.52-1.49,0-2.81-.23-3.95-.7-1.14-.47-2.24-1.05-3.28-1.74l-4.06,4.99c1.52,1.25,3.22,2.18,5.1,2.81,1.87.62,3.93.94,6.19.94s4.34-.35,6.06-1.04c1.72-.69,3.04-1.68,3.98-2.96.94-1.28,1.4-2.81,1.4-4.58,0-1.66-.33-3.01-.99-4.03-.66-1.02-1.52-1.8-2.57-2.34Z"/>
          </g>
          <g>
            <path class="cls-2" d="M149.13,21.67c.81-.48,1.77-.72,2.88-.72s2.03.23,2.77.69c.74.46,1.36,1.08,1.86,1.86l2.43-1.22c-1.52-2.55-3.89-3.82-7.13-3.82-1.7,0-3.16.34-4.37,1.02-1.22.68-2.15,1.65-2.8,2.93-.65,1.27-.98,2.8-.98,4.58s.33,3.31.98,4.58c.65,1.27,1.59,2.25,2.8,2.93s2.67,1.02,4.37,1.02c3.23,0,5.61-1.27,7.13-3.82l-2.43-1.22c-.51.78-1.13,1.41-1.86,1.86-.73.46-1.66.69-2.77.69-1.68,0-3-.53-3.94-1.59-.95-1.06-1.42-2.54-1.42-4.43,0-1.26.21-2.34.64-3.23.42-.9,1.04-1.59,1.85-2.07Z"/>
            <polygon class="cls-2" points="165.65 28 171.68 28 171.68 25.72 165.65 25.72 165.65 21.09 174.03 21.09 174.03 18.74 162.86 18.74 162.86 35.2 174.32 35.2 174.32 32.85 165.65 32.85 165.65 28"/>
            <path class="cls-2" d="M188.31,28.42c.83-.41,1.47-.99,1.92-1.75.45-.76.67-1.69.67-2.78,0-1.67-.49-2.94-1.46-3.82-.97-.88-2.35-1.32-4.13-1.32h-6.84v16.46h2.72v-6.17h2.67l4.21,6.17h3.18l-4.43-6.31c.53-.1,1.03-.26,1.47-.47ZM181.21,21.09h3.9c.96,0,1.71.24,2.23.72.52.48.78,1.17.78,2.07s-.26,1.59-.78,2.07c-.52.48-1.27.72-2.23.72h-3.9v-5.59Z"/>
            <polygon class="cls-2" points="202.35 15.21 204.73 17.93 206.47 17.05 203.67 13.45 201.03 13.45 198.24 17.05 199.97 17.93 202.35 15.21"/>
            <path class="cls-2" d="M200.96,18.74l-6.84,16.46h2.92l1.64-4.12h7.38l1.64,4.12h2.89l-6.84-16.46h-2.79ZM199.58,28.81l2.77-6.98,2.79,6.98h-5.56Z"/>
            <polygon class="cls-2" points="222.39 26.99 216.66 18.74 214.16 18.74 214.16 35.2 216.81 35.2 216.81 23.1 221.51 29.91 223.27 29.91 227.98 23.13 227.98 35.2 230.62 35.2 230.62 18.74 228.12 18.74 222.39 26.99"/>
            <rect class="cls-2" x="235.67" y="18.74" width="2.79" height="16.46"/>
            <path class="cls-2" d="M247.91,21.67c.81-.48,1.77-.72,2.88-.72s2.03.23,2.77.69c.74.46,1.36,1.08,1.86,1.86l2.43-1.22c-1.52-2.55-3.89-3.82-7.13-3.82-1.7,0-3.16.34-4.37,1.02-1.22.68-2.15,1.65-2.8,2.93-.65,1.27-.98,2.8-.98,4.58s.33,3.31.98,4.58c.65,1.27,1.59,2.25,2.8,2.93s2.67,1.02,4.37,1.02c3.23,0,5.61-1.27,7.13-3.82l-2.43-1.22c-.51.78-1.13,1.41-1.86,1.86-.73.46-1.66.69-2.77.69-1.68,0-3-.53-3.94-1.59-.95-1.06-1.42-2.54-1.42-4.43,0-1.26.21-2.34.64-3.23.42-.9,1.04-1.59,1.85-2.07Z"/>
            <path class="cls-2" d="M273.74,35.2h2.89l-6.84-16.46h-2.79l-6.84,16.46h2.92l1.64-4.12h7.38l1.64,4.12ZM265.63,28.81l2.77-6.98,2.79,6.98h-5.56Z"/>
          </g>
        </g>
      </g>
    </g>
  </g>
</svg>